Coordinates
version=1
nRows=17
nColumns=40
inDegrees=yes

Units are S.I. units (second, meters, Newtons, ...)
If the header above contains a line with 'inDegrees', this indicates whether rotational values are in degrees (yes) or radians (no).

endheader
time	pelvis_tilt	pelvis_list	pelvis_rotation	pelvis_tx	pelvis_ty	pelvis_tz	hip_flexion_r	hip_adduction_r	hip_rotation_r	knee_angle_r	knee_angle_r_beta	ankle_angle_r	subtalar_angle_r	mtp_angle_r	hip_flexion_l	hip_adduction_l	hip_rotation_l	knee_angle_l	knee_angle_l_beta	ankle_angle_l	subtalar_angle_l	mtp_angle_l	lumbar_extension	lumbar_bending	lumbar_rotation	arm_flex_r	arm_add_r	arm_rot_r	elbow_flex_r	pro_sup_r	wrist_flex_r	wrist_dev_r	arm_flex_l	arm_add_l	arm_rot_l	elbow_flex_l	pro_sup_l	wrist_flex_l	wrist_dev_l
      2.38000000	    -36.88357536	      6.03807942	     -3.86697048	     -0.33834171	      0.63358753	     -0.90446627	    105.86797226	    -20.56538614	     11.96911163	    101.46517577	      1.77090139	     32.70382835	      0.00000000	      0.00000000	    101.59305829	    -29.35221740	     -1.92587479	    101.41768658	      1.77007255	     37.83617047	      0.00000000	      0.00000000	    -14.86397181	     -6.51317897	      1.37081389	     16.59097015	    -52.69473678	     89.25982652	     87.74345376	     88.58104337	      0.00000000	      0.00000000	     16.65668532	    -57.57182313	     89.31375794	     94.08074021	     88.28585400	      0.00000000	      0.00000000
      2.38500000	    -36.85018874	      6.09798471	     -3.97388914	     -0.33822180	      0.63354771	     -0.90415810	    105.85719507	    -20.44173432	     12.00183851	    101.47381575	      1.77105219	     32.69441001	      0.00000000	      0.00000000	    101.52738834	    -29.49904851	     -1.97995525	    101.44797720	      1.77060122	     37.88306652	      0.00000000	      0.00000000	    -14.88214227	     -6.61955879	      1.44338134	     16.58337147	    -52.65209163	     89.25712790	     87.69799227	     88.55266229	      0.00000000	      0.00000000	     16.64595660	    -57.60043540	     89.30823689	     94.09290807	     88.32890915	      0.00000000	      0.00000000
      2.39000000	    -36.82486230	      6.09604413	     -3.92498542	     -0.33805205	      0.63352995	     -0.90426276	    105.83972711	    -20.51594285	     12.01084397	    101.50222236	      1.77154798	     32.72995296	      0.00000000	      0.00000000	    101.48942121	    -29.43701429	     -1.99144623	    101.45549739	      1.77073247	     37.89774228	      0.00000000	      0.00000000	    -14.89085174	     -6.60938544	      1.39479583	     16.58487187	    -52.65716035	     89.25656627	     87.70392159	     88.55388323	      0.00000000	      0.00000000	     16.65950520	    -57.59123120	     89.30941768	     94.08245163	     88.32641383	      0.00000000	      0.00000000
      2.39500000	    -36.81799751	      6.07332177	     -3.98299109	     -0.33795749	      0.63345670	     -0.90406163	    105.81091478	    -20.45157610	     11.96735583	    101.51598709	      1.77178822	     32.72388984	      0.00000000	      0.00000000	    101.51477860	    -29.51385251	     -1.93061341	    101.48831377	      1.77130523	     37.87022330	      0.00000000	      0.00000000	    -14.87869371	     -6.61094095	      1.45303341	     16.57723091	    -52.65531806	     89.25271151	     87.68894045	     88.55941191	      0.00000000	      0.00000000	     16.64545566	    -57.59969248	     89.30466722	     94.08188715	     88.33177446	      0.00000000	      0.00000000
      2.40000000	    -36.83790536	      6.00029217	     -4.00050537	     -0.33794343	      0.63331573	     -0.90387704	    105.78935961	    -20.42600053	     11.87791467	    101.53559510	      1.77213044	     32.74406528	      0.00000000	      0.00000000	    101.60889858	    -29.53468301	     -1.80260509	    101.50716183	      1.77163419	     37.84634648	      0.00000000	      0.00000000	    -14.84490963	     -6.54786986	      1.49530616	     16.56416997	    -52.67615849	     89.25131696	     87.72652991	     88.55666862	      0.00000000	      0.00000000	     16.64902675	    -57.60542583	     89.30199285	     94.07841348	     88.32622065	      0.00000000	      0.00000000
      2.40500000	    -36.82651672	      6.01120300	     -3.99447509	     -0.33781650	      0.63330455	     -0.90387682	    105.78810353	    -20.43961417	     11.89337868	    101.55097016	      1.77239879	     32.70342262	      0.00000000	      0.00000000	    101.58232487	    -29.52735909	     -1.81572606	    101.51175076	      1.77171428	     37.91836973	      0.00000000	      0.00000000	    -14.84235683	     -6.55940546	      1.48319973	     16.57293026	    -52.66640997	     89.25494138	     87.69605038	     88.57262895	      0.00000000	      0.00000000	     16.66028687	    -57.59343476	     89.30214275	     94.05342981	     88.25886161	      0.00000000	      0.00000000
      2.41000000	    -36.86845042	      6.03711431	     -3.97139408	     -0.33777492	      0.63312301	     -0.90391130	    105.85426905	    -20.45404667	     11.93443773	    101.56906012	      1.77271452	     32.67073577	      0.00000000	      0.00000000	    101.62556192	    -29.48463958	     -1.81344323	    101.53690292	      1.77215327	     37.92508832	      0.00000000	      0.00000000	    -14.77642931	     -6.58346231	      1.45267446	     16.55338740	    -52.65884221	     89.25801809	     87.69151057	     88.59195861	      0.00000000	      0.00000000	     16.63705755	    -57.61245847	     89.29741339	     94.03069144	     88.18264121	      0.00000000	      0.00000000
      2.41500000	    -36.83373405	      6.03220293	     -4.00041294	     -0.33761952	      0.63317433	     -0.90379143	    105.80478117	    -20.43389519	     11.91284593	    101.57728885	      1.77285814	     32.75647303	      0.00000000	      0.00000000	    101.57231535	    -29.52925771	     -1.81741937	    101.52620220	      1.77196651	     37.88523644	      0.00000000	      0.00000000	    -14.80288321	     -6.59957591	      1.47438656	     16.55701463	    -52.66612306	     89.24216904	     87.73026771	     88.60477194	      0.00000000	      0.00000000	     16.65730301	    -57.63455461	     89.29293683	     94.10474367	     88.24427404	      0.00000000	      0.00000000
      2.42000000	    -36.84066383	      5.96222532	     -3.97549702	     -0.33754620	      0.63310798	     -0.90377705	    105.75993689	    -20.46844028	     11.83265557	    101.58486927	      1.77299044	     32.82571763	      0.00000000	      0.00000000	    101.63389304	    -29.52517263	     -1.74147213	    101.55550394	      1.77247792	     37.88841004	      0.00000000	      0.00000000	    -14.78113799	     -6.51873100	      1.47914625	     16.54919821	    -52.67758962	     89.24536017	     87.72586641	     88.57486985	      0.00000000	      0.00000000	     16.66487387	    -57.60681119	     89.29554203	     94.08220628	     88.26999873	      0.00000000	      0.00000000
      2.42500000	    -36.85817355	      5.98906181	     -4.02010868	     -0.33746810	      0.63298249	     -0.90366305	    105.80453943	    -20.41502214	     11.85462369	    101.60422323	      1.77332823	     32.69203643	      0.00000000	      0.00000000	    101.63680027	    -29.56881833	     -1.74567032	    101.56038337	      1.77256308	     37.94112112	      0.00000000	      0.00000000	    -14.73508431	     -6.56129265	      1.51616769	     16.54902269	    -52.67636986	     89.25145627	     87.69878769	     88.58708803	      0.00000000	      0.00000000	     16.63739117	    -57.61898773	     89.29844803	     94.08267113	     88.20710324	      0.00000000	      0.00000000
      2.43000000	    -36.82446319	      5.98231010	     -4.00781256	     -0.33731627	      0.63304144	     -0.90370092	    105.75381783	    -20.43442907	     11.86036751	    101.61674858	      1.77354684	     32.83597671	      0.00000000	      0.00000000	    101.59802631	    -29.51855596	     -1.70848682	    101.55848603	      1.77252996	     37.93305112	      0.00000000	      0.00000000	    -14.77735023	     -6.55211856	      1.50215415	     16.54592332	    -52.72069473	     89.24140102	     87.73650774	     88.56458179	      0.00000000	      0.00000000	     16.61940651	    -57.59823201	     89.30155040	     94.12301742	     88.28220199	      0.00000000	      0.00000000
      2.43500000	    -36.82781886	      5.96519309	     -3.96227688	     -0.33723445	      0.63295135	     -0.90375910	    105.75764999	    -20.49359642	     11.85028586	    101.63919683	      1.77393863	     32.84024174	      0.00000000	      0.00000000	    101.61213245	    -29.49535454	     -1.71740772	    101.58611558	      1.77301219	     37.93534649	      0.00000000	      0.00000000	    -14.75998841	     -6.52751652	      1.46781089	     16.53581871	    -52.70641257	     89.24558044	     87.75257611	     88.55990153	      0.00000000	      0.00000000	     16.64012169	    -57.61474508	     89.29607625	     94.11440039	     88.29144630	      0.00000000	      0.00000000
      2.44000000	    -36.81409802	      5.97119393	     -3.94827138	     -0.33707283	      0.63298872	     -0.90380271	    105.74081991	    -20.51593297	     11.86530249	    101.65042597	      1.77413462	     32.75271841	      0.00000000	      0.00000000	    101.57655704	    -29.46165531	     -1.71615334	    101.57597885	      1.77283527	     37.99781529	      0.00000000	      0.00000000	    -14.76342679	     -6.53037752	      1.46091287	     16.52821509	    -52.66167525	     89.25708744	     87.60969709	     88.53563643	      0.00000000	      0.00000000	     16.66183122	    -57.55471025	     89.31752466	     93.96172510	     88.09819683	      0.00000000	      0.00000000
      2.44500000	    -36.86579167	      6.01214174	     -3.96977602	     -0.33716035	      0.63286244	     -0.90373927	    105.82420615	    -20.46821474	     11.90683134	    101.64424581	      1.77402676	     32.81715920	      0.00000000	      0.00000000	    101.61674235	    -29.50432371	     -1.76551896	    101.57713336	      1.77285542	     37.90571802	      0.00000000	      0.00000000	    -14.69897770	     -6.58099526	      1.45903060	     16.53479416	    -52.68332677	     89.24480216	     87.72844948	     88.56034241	      0.00000000	      0.00000000	     16.63166319	    -57.62474933	     89.29414203	     94.10651695	     88.26199534	      0.00000000	      0.00000000
      2.45000000	    -36.83834762	      6.00776446	     -3.96960070	     -0.33698685	      0.63287919	     -0.90371117	    105.79512300	    -20.47108213	     11.91644158	    101.67157800	      1.77450379	     32.72701886	      0.00000000	      0.00000000	    101.58645700	    -29.48648807	     -1.74373981	    101.59318713	      1.77313561	     37.94507735	      0.00000000	      0.00000000	    -14.71397244	     -6.57573737	      1.43854104	     16.57330266	    -52.67535277	     89.26218716	     87.66610996	     88.60071987	      0.00000000	      0.00000000	     16.60290276	    -57.60224856	     89.28923401	     94.03941106	     88.17423870	      0.00000000	      0.00000000
      2.45500000	    -36.80871710	      6.10517375	     -3.95613810	     -0.33685626	      0.63292733	     -0.90383499	    105.81278515	    -20.49498194	     12.02214167	    101.67571632	      1.77457602	     32.82285350	      0.00000000	      0.00000000	    101.46345397	    -29.46437945	     -1.89172132	    101.58007080	      1.77290669	     37.96705122	      0.00000000	      0.00000000	    -14.74518503	     -6.67334712	      1.40477979	     16.55203442	    -52.68421888	     89.24101730	     87.69603658	     88.55307652	      0.00000000	      0.00000000	     16.64966089	    -57.62469382	     89.29499848	     94.09009872	     88.31074342	      0.00000000	      0.00000000
      2.46000000	    -36.79438318	      6.08145099	     -3.87593517	     -0.33670809	      0.63293270	     -0.90402803	    105.80451644	    -20.60895085	     12.02125281	    101.69475955	      1.77490839	     32.82734575	      0.00000000	      0.00000000	    101.44519229	    -29.35951846	     -1.87287025	    101.59335882	      1.77313861	     38.00302426	      0.00000000	      0.00000000	    -14.75947392	     -6.62825107	      1.33762750	     16.55328207	    -52.69748292	     89.24570465	     87.70689829	     88.56106799	      0.00000000	      0.00000000	     16.64992631	    -57.58484605	     89.29435549	     94.04772694	     88.31412409	      0.00000000	      0.00000000
